<?xml version="1.0" standalone="no"?>
<!DOCTYPE svg PUBLIC "-//W3C//DTD SVG 20010904//EN"
 "http://www.w3.org/TR/2001/REC-SVG-20010904/DTD/svg10.dtd">
<svg version="1.0" xmlns="http://www.w3.org/2000/svg"
 width="466.000000pt" height="466.000000pt" viewBox="0 0 466.000000 466.000000"
 preserveAspectRatio="xMidYMid meet">
<metadata>
Created by potrace 1.11, written by Peter Selinger 2001-2013
</metadata>
<g transform="translate(0.000000,466.000000) scale(0.100000,-0.100000)"
fill="#000000" stroke="none">
<path d="M3874 3240 c-24 -10 -66 -57 -97 -111 l-22 -38 -85 -5 c-183 -13
-397 -39 -467 -57 -148 -37 -303 -139 -359 -234 -37 -63 -64 -152 -71 -231
-15 -178 106 -334 258 -334 47 0 129 40 171 83 79 82 118 220 85 300 -23 53
-34 46 -29 -17 5 -68 -24 -172 -68 -238 -65 -99 -191 -117 -258 -38 -95 111
-52 355 90 514 62 70 194 138 311 162 76 15 397 53 397 47 0 -2 -23 -58 -51
-126 -48 -113 -95 -234 -163 -414 l-28 -73 -42 0 c-52 0 -126 -48 -126 -81 0
-24 11 -23 89 6 24 8 46 13 49 11 8 -9 -36 -123 -89 -230 -151 -304 -368 -500
-649 -588 -103 -32 -276 -32 -364 1 -121 43 -198 110 -245 211 -24 50 -26 66
-25 175 0 108 3 126 27 178 35 78 84 144 125 169 43 26 29 45 -19 25 -41 -17
-120 -99 -147 -153 -45 -90 -58 -272 -27 -380 41 -143 125 -244 258 -309 216
-105 492 -76 713 76 201 138 399 426 510 743 l28 79 155 -7 c86 -3 213 -9 282
-13 l127 -6 -20 -56 c-72 -207 -114 -466 -89 -544 25 -75 109 -109 179 -73 36
19 109 98 150 163 37 58 122 245 122 268 0 34 -19 9 -74 -102 -118 -238 -200
-317 -255 -247 -40 51 -25 191 49 470 l32 120 56 12 c61 13 122 44 122 63 0 7
-7 8 -17 4 -21 -8 -143 -20 -143 -13 0 14 74 220 114 318 68 164 175 368 217
412 35 37 35 38 12 38 -71 0 -145 -69 -212 -198 -49 -96 -167 -386 -202 -498
l-24 -76 -85 6 c-47 3 -173 11 -280 17 -107 7 -196 13 -197 14 -4 2 143 448
176 531 30 78 33 82 68 89 117 22 202 127 145 178 -20 18 -54 21 -88 7z m41
-60 c13 -21 -7 -49 -47 -64 -22 -9 -42 -15 -44 -13 -2 2 10 22 27 45 30 41 52
52 64 32z"/>
<path d="M1452 3199 c-23 -12 -69 -51 -102 -87 l-59 -66 -78 37 c-137 63 -220
82 -368 81 -321 -1 -585 -136 -693 -354 -24 -48 -27 -67 -27 -150 0 -83 4
-101 27 -146 32 -61 92 -117 144 -135 58 -20 152 -17 199 6 81 40 143 125 153
212 6 60 -20 59 -36 -1 -13 -51 -65 -122 -111 -153 -86 -58 -212 -35 -275 50
-18 24 -21 43 -21 120 0 86 2 96 35 157 43 79 136 180 210 228 30 19 98 51
150 71 92 34 99 35 240 35 154 1 202 -10 320 -70 89 -45 88 -42 37 -116 -75
-111 -156 -263 -262 -493 -55 -121 -127 -265 -158 -321 -62 -110 -140 -222
-161 -230 -7 -3 -62 22 -122 56 -143 79 -200 100 -276 100 -123 0 -208 -73
-208 -178 0 -80 33 -132 107 -169 53 -25 68 -28 163 -28 122 1 181 19 285 91
l64 43 53 -30 c265 -146 678 -122 854 50 122 120 174 261 174 471 0 253 -90
469 -268 646 l-76 75 28 52 c39 70 94 137 113 137 15 0 14 21 -3 27 -5 2 -28
-7 -52 -18z m4 -430 c93 -141 146 -314 147 -489 1 -128 -14 -203 -59 -296
-105 -221 -393 -324 -682 -244 -71 20 -192 74 -192 86 0 3 19 27 43 54 93 103
195 271 411 675 65 121 136 253 158 293 l40 74 45 -44 c24 -23 64 -73 89 -109z
m-1032 -869 c66 -34 125 -66 130 -71 14 -12 -15 -33 -103 -76 -63 -31 -87 -37
-155 -40 -100 -5 -137 13 -168 84 -17 39 -19 52 -9 84 6 21 26 50 43 64 51 43
112 33 262 -45z"/>
<path d="M1890 1830 c-47 -47 -32 -122 26 -128 61 -6 110 92 66 131 -25 23
-68 21 -92 -3z"/>
<path d="M4535 1825 c-48 -47 -24 -125 37 -125 33 0 78 51 78 89 0 59 -71 81
-115 36z"/>
</g>
</svg>
